<svg xmlns="http://www.w3.org/2000/svg">
  <symbol viewBox="0 0 24 24" id="clip"><path d="M22.95,9.6a1,1,0,0,0-1.414,0L10.644,20.539a5,5,0,1,1-7.072-7.071L14.121,2.876a3,3,0,0,1,4.243,4.242L7.815,17.71a1.022,1.022,0,0,1-1.414,0,1,1,0,0,1,0-1.414l9.392-9.435a1,1,0,0,0-1.414-1.414L4.987,14.882a3,3,0,0,0,0,4.243,3.073,3.073,0,0,0,4.243,0L19.778,8.532a5,5,0,0,0-7.071-7.07L2.158,12.054a7,7,0,0,0,9.9,9.9L22.95,11.018A1,1,0,0,0,22.95,9.6Z"/>
  </symbol>
  <symbol viewBox="0 0 24 24" id="dueDate"><path d="M17,10.039c-3.859,0-7,3.14-7,7,0,3.838,3.141,6.961,7,6.961s7-3.14,7-7c0-3.838-3.141-6.961-7-6.961Zm0,11.961c-2.757,0-5-2.226-5-4.961,0-2.757,2.243-5,5-5s5,2.226,5,4.961c0,2.757-2.243,5-5,5Zm1.707-4.707c.391,.391,.391,1.023,0,1.414-.195,.195-.451,.293-.707,.293s-.512-.098-.707-.293l-1-1c-.188-.188-.293-.442-.293-.707v-2c0-.552,.447-1,1-1s1,.448,1,1v1.586l.707,.707Zm5.293-10.293v2c0,.552-.447,1-1,1s-1-.448-1-1v-2c0-1.654-1.346-3-3-3H5c-1.654,0-3,1.346-3,3v1H11c.552,0,1,.448,1,1s-.448,1-1,1H2v9c0,1.654,1.346,3,3,3h4c.552,0,1,.448,1,1s-.448,1-1,1H5c-2.757,0-5-2.243-5-5V7C0,4.243,2.243,2,5,2h1V1c0-.552,.448-1,1-1s1,.448,1,1v1h8V1c0-.552,.447-1,1-1s1,.448,1,1v1h1c2.757,0,5,2.243,5,5Z"/>
  </symbol>
  <symbol viewBox="0 0 24 24" id="calendar"><path d="M19,2H18V1a1,1,0,0,0-2,0V2H8V1A1,1,0,0,0,6,1V2H5A5.006,5.006,0,0,0,0,7V19a5.006,5.006,0,0,0,5,5H19a5.006,5.006,0,0,0,5-5V7A5.006,5.006,0,0,0,19,2ZM2,7A3,3,0,0,1,5,4H19a3,3,0,0,1,3,3V8H2ZM19,22H5a3,3,0,0,1-3-3V10H22v9A3,3,0,0,1,19,22Z"/><circle cx="12" cy="15" r="1.5"/><circle cx="7" cy="15" r="1.5"/><circle cx="17" cy="15" r="1.5"/>
  </symbol>
  <symbol viewBox="0 0 24 24" id="duration"><path d="M12,24C5.383,24,0,18.617,0,12S5.383,0,12,0s12,5.383,12,12-5.383,12-12,12Zm0-22C6.486,2,2,6.486,2,12s4.486,10,10,10,10-4.486,10-10S17.514,2,12,2Zm2.5,14.33c.479-.276,.643-.888,.366-1.366l-1.866-3.232V6c0-.552-.447-1-1-1s-1,.448-1,1v6c0,.176,.046,.348,.134,.5l2,3.464c.186,.321,.521,.5,.867,.5,.17,0,.342-.043,.499-.134Z"/>
  </symbol>
  <symbol viewBox="0 0 24 24" id="pencil"><path d="M22.853,1.148a3.626,3.626,0,0,0-5.124,0L1.465,17.412A4.968,4.968,0,0,0,0,20.947V23a1,1,0,0,0,1,1H3.053a4.966,4.966,0,0,0,3.535-1.464L22.853,6.271A3.626,3.626,0,0,0,22.853,1.148ZM5.174,21.122A3.022,3.022,0,0,1,3.053,22H2V20.947a2.98,2.98,0,0,1,.879-2.121L15.222,6.483l2.3,2.3ZM21.438,4.857,18.932,7.364l-2.3-2.295,2.507-2.507a1.623,1.623,0,1,1,2.295,2.3Z"/>
  </symbol>
  <symbol viewBox="0 0 22 24" id="tasks"><path d="M17,24H7c-2.757,0-5-2.243-5-5V5C2,2.243,4.243,0,7,0h10c2.757,0,5,2.243,5,5v14c0,2.757-2.243,5-5,5ZM7,2c-1.654,0-3,1.346-3,3v14c0,1.654,1.346,3,3,3h10c1.654,0,3-1.346,3-3V5c0-1.654-1.346-3-3-3H7Zm11,4c0-.552-.448-1-1-1h-4c-.552,0-1,.448-1,1s.448,1,1,1h4c.552,0,1-.448,1-1Zm0,6c0-.552-.448-1-1-1h-4c-.552,0-1,.448-1,1s.448,1,1,1h4c.552,0,1-.448,1-1Zm0,6c0-.552-.448-1-1-1h-4c-.552,0-1,.448-1,1s.448,1,1,1h4c.552,0,1-.448,1-1ZM10,7v-2c0-.552-.448-1-1-1h-2c-.552,0-1,.448-1,1v2c0,.552,.448,1,1,1h2c.552,0,1-.448,1-1Zm0,6v-2c0-.552-.448-1-1-1h-2c-.552,0-1,.448-1,1v2c0,.552,.448,1,1,1h2c.552,0,1-.448,1-1Zm0,6v-2c0-.552-.448-1-1-1h-2c-.552,0-1,.448-1,1v2c0,.552,.448,1,1,1h2c.552,0,1-.448,1-1Z"/>
  </symbol>
  <symbol viewBox="0 0 24 24" id="home"><path d="M23.121,9.069,15.536,1.483a5.008,5.008,0,0,0-7.072,0L.879,9.069A2.978,2.978,0,0,0,0,11.19v9.817a3,3,0,0,0,3,3H21a3,3,0,0,0,3-3V11.19A2.978,2.978,0,0,0,23.121,9.069ZM15,22.007H9V18.073a3,3,0,0,1,6,0Zm7-1a1,1,0,0,1-1,1H17V18.073a5,5,0,0,0-10,0v3.934H3a1,1,0,0,1-1-1V11.19a1.008,1.008,0,0,1,.293-.707L9.878,2.9a3.008,3.008,0,0,1,4.244,0l7.585,7.586A1.008,1.008,0,0,1,22,11.19Z"/>
  </symbol>
  <symbol viewBox="0 0 24 24" id="search"><path d="M23.707,22.293l-5.969-5.969a10.016,10.016,0,1,0-1.414,1.414l5.969,5.969a1,1,0,0,0,1.414-1.414ZM10,18a8,8,0,1,1,8-8A8.009,8.009,0,0,1,10,18Z"/>
  </symbol>
  <symbol viewBox="0 0 24 24" id="comments"><path d="M24,11.247A12.012,12.012,0,1,0,12.017,24H19a5.005,5.005,0,0,0,5-5V11.247ZM22,19a3,3,0,0,1-3,3H12.017a10.041,10.041,0,0,1-7.476-3.343,9.917,9.917,0,0,1-2.476-7.814,10.043,10.043,0,0,1,8.656-8.761A10.564,10.564,0,0,1,12.021,2,9.921,9.921,0,0,1,18.4,4.3,10.041,10.041,0,0,1,22,11.342Z"/><path d="M8,9h4a1,1,0,0,0,0-2H8A1,1,0,0,0,8,9Z"/><path d="M16,11H8a1,1,0,0,0,0,2h8a1,1,0,0,0,0-2Z"/><path d="M16,15H8a1,1,0,0,0,0,2h8a1,1,0,0,0,0-2Z"/>
  </symbol>
  <symbol viewBox="0 0 512 512" id="plus"><g><path d="M480,224H288V32c0-17.673-14.327-32-32-32s-32,14.327-32,32v192H32c-17.673,0-32,14.327-32,32s14.327,32,32,32h192v192   c0,17.673,14.327,32,32,32s32-14.327,32-32V288h192c17.673,0,32-14.327,32-32S497.673,224,480,224z"/></g>
  </symbol>
  <symbol viewBox="0 0 512.0213 512.0209" id="cross"><g><path d="M301.258,256.01L502.645,54.645c12.501-12.501,12.501-32.769,0-45.269c-12.501-12.501-32.769-12.501-45.269,0l0,0   L256.01,210.762L54.645,9.376c-12.501-12.501-32.769-12.501-45.269,0s-12.501,32.769,0,45.269L210.762,256.01L9.376,457.376   c-12.501,12.501-12.501,32.769,0,45.269s32.769,12.501,45.269,0L256.01,301.258l201.365,201.387   c12.501,12.501,32.769,12.501,45.269,0c12.501-12.501,12.501-32.769,0-45.269L301.258,256.01z"/></g>
  </symbol>
</svg>